<svg width="37" height="39" viewBox="0 0 37 39" fill="none" xmlns="http://www.w3.org/2000/svg">
<path d="M34.48 19.5H30.73C30.2327 19.5 29.7558 19.6975 29.4042 20.0491C29.0526 20.4008 28.855 20.8777 28.855 21.375C28.855 21.8722 29.0526 22.3492 29.4042 22.7008C29.7558 23.0524 30.2327 23.25 30.73 23.25V27H28.5063C28.7278 26.3993 28.8451 25.7652 28.8531 25.125C28.8531 23.8868 28.4445 22.6832 27.6907 21.7008C26.9369 20.7185 25.88 20.0124 24.684 19.6919C23.488 19.3714 22.2197 19.4545 21.0757 19.9283C19.9317 20.4021 18.976 21.2402 18.3569 22.3125C18.2318 22.5258 18.1502 22.7617 18.1167 23.0067C18.0832 23.2517 18.0985 23.5009 18.1617 23.74C18.2249 23.979 18.3348 24.2032 18.485 24.3997C18.6352 24.5961 18.8228 24.7609 19.0369 24.8845C19.251 25.0082 19.4875 25.0882 19.7327 25.1201C19.978 25.152 20.2271 25.135 20.4657 25.0702C20.7043 25.0054 20.9278 24.8941 21.1232 24.7426C21.3186 24.5911 21.4822 24.4024 21.6044 24.1875C21.7689 23.9024 22.0056 23.6657 22.2907 23.5012C22.5757 23.3366 22.899 23.25 23.2281 23.25C23.7254 23.25 24.2023 23.4475 24.554 23.7991C24.9056 24.1508 25.1031 24.6277 25.1031 25.125C25.1031 25.6222 24.9056 26.0992 24.554 26.4508C24.2023 26.8024 23.7254 27 23.2281 27C22.7309 27 22.2539 27.1975 21.9023 27.5491C21.5507 27.9008 21.3531 28.3777 21.3531 28.875C21.3531 29.3722 21.5507 29.8492 21.9023 30.2008C22.2539 30.5524 22.7309 30.75 23.2281 30.75C23.7254 30.75 24.2023 30.9475 24.554 31.2991C24.9056 31.6508 25.1031 32.1277 25.1031 32.625C25.1031 33.1222 24.9056 33.5992 24.554 33.9508C24.2023 34.3024 23.7254 34.5 23.2281 34.5C22.899 34.5 22.5757 34.4133 22.2907 34.2487C22.0056 34.0842 21.7689 33.8475 21.6044 33.5625C21.4822 33.3475 21.3186 33.1588 21.1232 33.0073C20.9278 32.8558 20.7043 32.7445 20.4657 32.6797C20.2271 32.6149 19.978 32.598 19.7327 32.6298C19.4875 32.6617 19.251 32.7418 19.0369 32.8654C18.8228 32.989 18.6352 33.1538 18.485 33.3503C18.3348 33.5467 18.2249 33.7709 18.1617 34.0099C18.0985 34.249 18.0832 34.4982 18.1167 34.7432C18.1502 34.9882 18.2318 35.2241 18.3569 35.4375C18.976 36.5098 19.9317 37.3478 21.0757 37.8216C22.2197 38.2954 23.488 38.3785 24.684 38.058C25.88 37.7376 26.9369 37.0314 27.6907 36.0491C28.4445 35.0668 28.8531 33.8632 28.8531 32.625C28.8451 31.9848 28.7278 31.3507 28.5063 30.75H30.7281V36.375C30.7281 36.8722 30.9257 37.3492 31.2773 37.7008C31.6289 38.0524 32.1059 38.25 32.6031 38.25C33.1004 38.25 33.5773 38.0524 33.929 37.7008C34.2806 37.3492 34.4781 36.8722 34.4781 36.375V23.25C34.9754 23.25 35.4523 23.0524 35.804 22.7008C36.1556 22.3492 36.3531 21.8722 36.3531 21.375C36.3531 20.8777 36.1556 20.4008 35.804 20.0491C35.4523 19.6975 34.9773 19.5 34.48 19.5ZM12.0344 18.0806C12.0928 18.321 12.1982 18.5474 12.3444 18.7468C12.4907 18.9463 12.675 19.1148 12.8868 19.2428C13.0985 19.3707 13.3334 19.4554 13.578 19.4922C13.8226 19.5289 14.0721 19.5169 14.312 19.4567C14.552 19.3966 14.7776 19.2896 14.9761 19.1419C15.1745 18.9942 15.3417 18.8087 15.4681 18.5961C15.5945 18.3835 15.6776 18.148 15.7126 17.9031C15.7475 17.6582 15.7337 17.4088 15.6719 17.1693L12.3775 3.98809C12.1471 3.06218 11.6135 2.23999 10.8617 1.6524C10.11 1.06481 9.18323 0.745605 8.22908 0.745605C7.27492 0.745605 6.3482 1.06481 5.59643 1.6524C4.84467 2.23999 4.31109 3.06218 4.08064 3.98809L0.784388 17.1693C0.722567 17.4088 0.708747 17.6582 0.743724 17.9031C0.778701 18.148 0.861784 18.3835 0.988185 18.5961C1.11459 18.8087 1.28181 18.9942 1.48022 19.1419C1.67863 19.2896 1.90431 19.3966 2.14425 19.4567C2.38419 19.5169 2.63365 19.5289 2.87827 19.4922C3.12288 19.4554 3.35781 19.3707 3.56952 19.2428C3.78123 19.1148 3.96554 18.9463 4.11183 18.7468C4.25812 18.5474 4.36349 18.321 4.42189 18.0806L5.47189 13.875H10.9844L12.0344 18.0806ZM6.41126 10.125L7.71814 4.89934C7.75755 4.79548 7.82763 4.70608 7.91905 4.64299C8.01048 4.5799 8.11893 4.54611 8.23001 4.54611C8.34109 4.54611 8.44955 4.5799 8.54097 4.64299C8.6324 4.70608 8.70247 4.79548 8.74189 4.89934L10.0488 10.125H6.41126ZM21.355 10.125H23.23C23.7273 10.125 24.2042 10.3225 24.5558 10.6741C24.9075 11.0258 25.105 11.5027 25.105 12V13.875C25.105 14.3722 25.3026 14.8492 25.6542 15.2008C26.0058 15.5524 26.4827 15.75 26.98 15.75C27.4773 15.75 27.9542 15.5524 28.3058 15.2008C28.6575 14.8492 28.855 14.3722 28.855 13.875V12C28.8535 10.5086 28.2604 9.0787 27.2058 8.02413C26.1513 6.96956 24.7214 6.37645 23.23 6.37496H21.355C20.8577 6.37496 20.3808 6.57251 20.0292 6.92414C19.6776 7.27577 19.48 7.75268 19.48 8.24996C19.48 8.74724 19.6776 9.22416 20.0292 9.57579C20.3808 9.92742 20.8577 10.125 21.355 10.125ZM13.855 27H11.98C11.4827 27 11.0058 26.8024 10.6542 26.4508C10.3026 26.0992 10.105 25.6222 10.105 25.125V23.25C10.105 22.7527 9.90747 22.2758 9.55584 21.9241C9.20421 21.5725 8.72729 21.375 8.23001 21.375C7.73273 21.375 7.25582 21.5725 6.90419 21.9241C6.55256 22.2758 6.35501 22.7527 6.35501 23.25V25.125C6.3565 26.6163 6.94961 28.0462 8.00418 29.1008C9.05875 30.1554 10.4886 30.7485 11.98 30.75H13.855C14.3523 30.75 14.8292 30.5524 15.1808 30.2008C15.5325 29.8492 15.73 29.3722 15.73 28.875C15.73 28.3777 15.5325 27.9008 15.1808 27.5491C14.8292 27.1975 14.3523 27 13.855 27Z" fill="#4F6974"/>
</svg>
